<svg width="127" height="310" viewBox="0 0 127 310" fill="none" xmlns="http://www.w3.org/2000/svg">
<g clip-path="url(#clip0_21_13)">
<path d="M99.0778 114.559C99.0778 116.407 98.9195 118.214 98.7278 119.987C98.5361 121.76 98.2694 123.5 97.961 125.216C97.3465 128.586 96.5508 131.921 95.5772 135.206C95.0993 136.838 94.5853 138.456 94.0352 140.06C93.7601 140.892 93.4768 141.667 93.2017 142.466L92.7433 143.681L92.4932 144.298L92.2182 144.989C91.3843 146.655 89.9587 147.952 88.2195 148.625C86.4804 149.298 84.5525 149.3 82.812 148.631C81.0714 147.961 79.643 146.668 78.8055 145.003C77.968 143.338 77.7814 141.422 78.2821 139.627L78.3821 139.361L78.7155 138.453L79.0656 137.437C79.299 136.755 79.524 136.055 79.7407 135.356C80.1741 133.957 80.5798 132.55 80.9576 131.135C81.7003 128.338 82.2902 125.504 82.7246 122.643C83.1552 119.925 83.3698 117.177 83.3664 114.426C83.3664 114.093 83.3664 113.776 83.3664 113.452C83.3664 113.285 83.3664 113.127 83.3664 112.96V112.494V112.011L83.3247 111.495C83.3247 111.145 83.2664 110.804 83.2247 110.446C83.0914 109.022 82.8913 107.54 82.6913 106.059C82.2662 103.086 81.7494 100.056 81.191 97.017L80.8909 95.3519L80.4659 93.1374L80.1158 91.364C79.8824 90.1985 79.649 89.0246 79.4073 87.859C78.7738 84.8119 78.1182 81.7592 77.4403 78.7009L76.4067 74.1302L75.8733 71.8574L75.3399 69.6095V69.4929C75.3427 69.4486 75.3427 69.4041 75.3399 69.3597C74.9635 67.5754 75.1804 65.717 75.9577 64.067C76.735 62.417 78.0302 61.0655 79.6466 60.2178C81.2629 59.37 83.1121 59.0723 84.9132 59.3699C86.7144 59.6676 88.3691 60.5442 89.626 61.8668C90.5688 63.7038 91.4037 65.5941 92.1265 67.5281L92.2848 68.2441L92.7766 70.6002L93.7351 75.3041C94.3686 78.4456 94.977 81.5955 95.5605 84.7536C95.8717 86.4187 96.1717 88.1032 96.4607 89.8072C96.5274 90.1402 96.5857 90.4815 96.6357 90.8146C96.6857 91.1476 96.7774 91.6471 96.8357 91.9968C96.9691 92.7544 97.0941 93.512 97.2108 94.278C97.7276 97.475 98.211 100.697 98.6027 103.994C98.8028 105.659 98.9862 107.324 99.1195 109.039C99.1195 109.464 99.1779 109.872 99.2112 110.346C99.2112 110.571 99.2112 110.779 99.2529 111.012V111.72V112.428C99.2529 112.661 99.2529 112.894 99.2529 113.127C99.0862 113.626 99.0945 114.101 99.0778 114.559Z" fill="#FF9D7D"/>
<path d="M86.9505 118.255C86.8822 118.237 86.819 118.204 86.7656 118.158C86.7122 118.111 86.6699 118.054 86.6421 117.989C86.5948 117.877 86.5937 117.752 86.639 117.639C86.6843 117.527 86.7723 117.437 86.8838 117.39C89.3297 116.379 91.9793 115.957 94.6186 116.157C94.6803 116.163 94.7403 116.18 94.795 116.209C94.8496 116.238 94.8978 116.278 94.9367 116.326C94.9756 116.374 95.0044 116.429 95.0212 116.489C95.0381 116.548 95.0427 116.611 95.0348 116.672C95.0269 116.733 95.0067 116.792 94.9753 116.846C94.944 116.899 94.9021 116.945 94.8524 116.982C94.8026 117.019 94.7458 117.045 94.6856 117.059C94.6254 117.073 94.5629 117.075 94.5019 117.065C92.0249 116.899 89.5426 117.298 87.2422 118.23C87.1496 118.268 87.048 118.276 86.9505 118.255Z" fill="#E0693E"/>
<path d="M87.5256 117.964C87.4757 117.952 87.4279 117.932 87.3839 117.906C87.284 117.838 87.2144 117.734 87.1895 117.616C87.1647 117.498 87.1865 117.375 87.2505 117.273C88.1404 116.079 89.2596 115.074 90.5428 114.317C90.6533 114.257 90.7835 114.242 90.9046 114.277C91.0258 114.313 91.128 114.394 91.1888 114.505C91.2496 114.615 91.264 114.745 91.2288 114.866C91.1936 114.987 91.1118 115.089 91.0012 115.15C89.8448 115.835 88.8317 116.737 88.0173 117.806C87.9615 117.879 87.8844 117.934 87.7964 117.962C87.7084 117.991 87.6139 117.991 87.5256 117.964Z" fill="#E0693E"/>
<path d="M79.9824 91.414C80.2491 92.7461 80.5075 94.0698 80.7576 95.4019L96.594 92.0717C96.469 91.3391 96.344 90.6148 96.2106 89.8821L79.9824 91.414Z" fill="#E0693E"/>
<path d="M63.4958 310C98.5636 310 126.992 306.649 126.992 302.515C126.992 298.382 98.5636 295.031 63.4958 295.031C28.4281 295.031 0 298.382 0 302.515C0 306.649 28.4281 310 63.4958 310Z" fill="#AAB4BC"/>
<path d="M20.129 277.514L19.6205 284.74H31.6812L32.1897 277.514H20.129Z" fill="#FF9D7D"/>
<path d="M49.3097 206.855C49.3097 206.855 49.4097 211.584 44.6171 232.315C40.508 250.081 34.3568 278.938 34.3568 278.938C34.3568 278.938 24.1464 279.928 18.0536 277.414L22.9212 218.844L23.6213 210.469L25.48 188.04L25.6884 178.549C25.8884 156.902 29.7725 135.056 29.7725 135.056L57.5613 155.72C56.9029 168.741 52.2936 192.277 49.2264 206.747L49.3097 206.855Z" fill="#121633"/>
<path d="M34.7902 215.514C34.6235 217.853 30.0059 219.427 24.4798 219.036C23.9464 219.036 23.4296 218.944 22.9212 218.877L23.6213 210.502C24.0964 210.502 24.5882 210.502 25.0883 210.56C30.6144 210.91 34.9569 213.133 34.7902 215.514Z" fill="#353C6D"/>
<path d="M32.198 273.518H32.0313C31.9217 273.498 31.8171 273.456 31.7239 273.395C31.6306 273.334 31.5506 273.255 31.4884 273.163C31.4262 273.071 31.3832 272.967 31.362 272.857C31.3407 272.748 31.3415 272.636 31.3645 272.527C31.8813 269.896 33.4399 263.194 35.407 254.702C39.1494 238.601 44.267 216.538 44.9088 210.71C44.9047 210.682 44.9047 210.654 44.9088 210.627C46.9426 201.286 52.0269 166.418 52.0852 166.069C52.1173 165.848 52.2359 165.649 52.4148 165.515C52.5938 165.382 52.8186 165.325 53.0396 165.357C53.2607 165.389 53.4599 165.507 53.5936 165.686C53.7272 165.865 53.7843 166.089 53.7522 166.31C53.7022 166.66 48.6179 201.485 46.5675 210.943C45.9007 216.938 40.783 238.975 37.049 255.068C35.1569 263.202 33.5233 270.229 33.0148 272.835C32.9798 273.026 32.879 273.199 32.7298 273.324C32.5806 273.448 32.3925 273.517 32.198 273.518Z" fill="#353C6D"/>
<path d="M32.8065 273.842C28.247 273.743 23.7103 273.168 19.2704 272.127C19.1894 272.116 19.1118 272.087 19.0424 272.044C18.9731 272.001 18.9137 271.943 18.8681 271.875C18.8224 271.807 18.7916 271.731 18.7775 271.65C18.7635 271.57 18.7666 271.487 18.7866 271.408C18.8066 271.329 18.843 271.255 18.8935 271.19C18.9441 271.126 19.0076 271.073 19.08 271.035C19.1523 270.997 19.2319 270.974 19.3135 270.969C19.3952 270.963 19.477 270.975 19.5538 271.003C19.6372 271.003 28.0222 273.035 34.6068 272.668C34.6834 272.664 34.7602 272.675 34.8327 272.7C34.9053 272.725 34.9721 272.764 35.0294 272.815C35.0867 272.866 35.1333 272.928 35.1667 272.997C35.2 273.066 35.2193 273.141 35.2236 273.218C35.2305 273.372 35.1768 273.523 35.074 273.638C34.9713 273.753 34.8275 273.823 34.6735 273.834C34.065 273.792 33.4399 273.842 32.8065 273.842Z" fill="#353C6D"/>
<path d="M35.3736 301.033C35.3736 301.133 35.3736 301.233 35.3736 301.333C35.3736 301.783 35.357 302.182 35.3236 302.532C35.2819 303.298 35.2236 303.764 35.2236 303.764H9.83525C9.76545 302.955 9.76545 302.142 9.83525 301.333C10.0019 298.744 10.8688 294.673 14.3695 291.942C19.1704 288.237 17.3201 289.011 18.3036 287.321C18.4119 287.138 19.2788 284.266 19.3705 284.066C20.204 282.309 20.9541 281.485 25.4967 281.485C31.5312 281.485 32.0646 284.407 32.7064 285.948C33.1201 287.117 33.4542 288.313 33.7066 289.528C33.865 290.169 34.015 290.851 34.165 291.551C34.5318 293.291 34.8819 295.122 35.1152 296.546C35.3311 298.032 35.4176 299.533 35.3736 301.033Z" fill="#FA7027"/>
<path d="M35.3736 301.033C35.3736 301.133 35.3736 301.233 35.3736 301.333C35.3736 301.783 35.357 302.182 35.3236 302.532C34.1129 301.694 33.1925 300.501 32.6898 299.119C31.1144 294.848 33.5233 289.719 33.6316 289.503H33.6816C33.84 290.144 33.99 290.826 34.14 291.526C33.5649 293.266 32.9065 296.196 33.8233 298.686C34.1405 299.583 34.6727 300.389 35.3736 301.033Z" fill="#D34606"/>
<path d="M35.3736 301.333C35.3736 302.773 35.2236 303.764 35.2236 303.764H9.83525C9.76545 302.955 9.76545 302.142 9.83525 301.333H35.3736Z" fill="#D34606"/>
<path d="M26.3052 289.386C26.2443 289.394 26.1827 289.394 26.1218 289.386C24.1973 288.882 22.1803 288.842 20.2373 289.27C20.0516 289.32 19.8533 289.295 19.6861 289.2C19.5188 289.105 19.3963 288.947 19.3455 288.762C19.2946 288.576 19.3196 288.378 19.415 288.211C19.5103 288.044 19.6682 287.922 19.8539 287.871C22.0531 287.369 24.3416 287.409 26.5219 287.987C26.6912 288.033 26.8383 288.138 26.9358 288.284C27.0334 288.429 27.0748 288.605 27.0524 288.779C27.03 288.953 26.9454 289.113 26.8141 289.229C26.6829 289.345 26.5139 289.41 26.3385 289.411L26.3052 289.386Z" fill="#F2F7F9"/>
<path d="M26.6053 286.83C26.5444 286.838 26.4827 286.838 26.4219 286.83C24.4983 286.321 22.4809 286.279 20.5374 286.705C20.3528 286.757 20.1554 286.733 19.9883 286.639C19.8212 286.546 19.698 286.39 19.6455 286.206C19.5968 286.02 19.6227 285.823 19.7177 285.657C19.8128 285.49 19.9694 285.367 20.154 285.315C22.3532 284.813 24.6416 284.853 26.822 285.431C26.9913 285.477 27.1383 285.582 27.2359 285.728C27.3334 285.874 27.3749 286.049 27.3525 286.223C27.3301 286.397 27.2454 286.557 27.1142 286.673C26.9829 286.789 26.8139 286.854 26.6386 286.855L26.6053 286.83Z" fill="#F2F7F9"/>
<path d="M25.2216 291.676C25.1608 291.684 25.0991 291.684 25.0383 291.676C23.113 291.177 21.0974 291.137 19.1538 291.559C19.0618 291.584 18.9658 291.591 18.8712 291.579C18.7766 291.567 18.6852 291.537 18.6024 291.49C18.5196 291.443 18.4469 291.38 18.3884 291.304C18.33 291.229 18.287 291.143 18.2619 291.051C18.2356 290.96 18.2279 290.864 18.2393 290.77C18.2508 290.676 18.2812 290.584 18.3286 290.502C18.3761 290.42 18.4396 290.348 18.5155 290.29C18.5914 290.233 18.6781 290.192 18.7704 290.169C20.9557 289.672 23.2287 289.709 25.3967 290.277C25.5654 290.322 25.7121 290.427 25.8097 290.572C25.9073 290.716 25.9494 290.891 25.9281 291.065C25.9068 291.238 25.8236 291.398 25.6938 291.514C25.564 291.631 25.3963 291.697 25.2216 291.701V291.676Z" fill="#F2F7F9"/>
<path d="M23.9464 294.281C23.8856 294.29 23.8238 294.29 23.763 294.281C21.8377 293.783 19.8221 293.743 17.8785 294.165C17.6929 294.214 17.4955 294.188 17.3288 294.093C17.1621 293.998 17.0393 293.841 16.9867 293.657C16.9614 293.565 16.9545 293.469 16.9664 293.375C16.9783 293.28 17.0087 293.189 17.0559 293.106C17.1031 293.024 17.1662 292.951 17.2416 292.893C17.317 292.834 17.4031 292.791 17.4951 292.766C19.6809 292.27 21.9545 292.31 24.1214 292.883C24.2901 292.928 24.4368 293.033 24.5344 293.177C24.6321 293.322 24.6741 293.497 24.6528 293.67C24.6315 293.844 24.5483 294.003 24.4185 294.12C24.2887 294.237 24.1211 294.303 23.9464 294.306V294.281Z" fill="#F2F7F9"/>
<path d="M30.2143 132.092C30.2143 132.092 27.3054 149.709 29.2808 156.753C31.2561 163.796 81.241 169.824 84.4833 163.413C90.5262 151.391 86.2336 139.893 85.8836 136.721C64.0459 141.7 46.0007 139.061 30.2143 132.092Z" fill="#121633"/>
<path d="M77.857 277.739L79.0322 286.539H89.9594L88.7841 277.739H77.857Z" fill="#FF9D7D"/>
<path d="M116.148 303.764H76.365C76.0415 303.072 75.8628 302.321 75.8399 301.558C75.5982 298.228 76.6734 292.833 77.1902 289.453C77.2569 289.061 77.3152 288.687 77.3569 288.354C77.4201 287.895 77.4591 287.434 77.4736 286.972C77.4736 284.216 79.9157 284.69 79.9157 284.69C83.9415 288.628 88.5007 282.717 91.1596 284.69C91.1596 284.69 92.3098 285.523 95.4688 288.345C98.6277 291.168 103.995 293.058 108.571 295.006C114.473 297.503 116.148 299.934 116.473 301.666C116.615 302.382 116.5 303.125 116.148 303.764Z" fill="#FA7027"/>
<path d="M116.148 303.764H76.365C76.0415 303.072 75.8628 302.321 75.8399 301.558H116.473C116.643 302.308 116.527 303.095 116.148 303.764Z" fill="#D34606"/>
<path d="M80.4242 303.764H79.2406C80.0019 302.899 80.5833 301.891 80.951 300.799C81.3188 299.707 81.4655 298.553 81.3827 297.403C81.2741 295.863 80.8478 294.361 80.1306 292.993C79.4134 291.625 78.4209 290.42 77.2152 289.453C77.2819 289.061 77.3402 288.687 77.3819 288.354C78.8249 289.398 80.0208 290.746 80.8849 292.302C81.7491 293.859 82.2604 295.586 82.3829 297.362C82.521 299.662 81.8257 301.934 80.4242 303.764Z" fill="#D34606"/>
<path d="M94.627 290.385C94.4704 290.379 94.3213 290.316 94.2065 290.21C94.0916 290.103 94.0186 289.959 94.0006 289.804C93.9825 289.648 94.0205 289.491 94.1078 289.361C94.1952 289.231 94.326 289.137 94.4769 289.095L96.9774 288.479C97.1454 288.437 97.3232 288.463 97.4717 288.552C97.6202 288.641 97.7272 288.785 97.7692 288.953C97.8112 289.121 97.7848 289.299 97.6957 289.447C97.6066 289.595 97.4622 289.702 97.2942 289.744L94.7937 290.36C94.74 290.378 94.6836 290.387 94.627 290.385Z" fill="#F2F7F9"/>
<path d="M92.2182 288.454C92.0717 288.455 91.9291 288.407 91.8129 288.318C91.6967 288.229 91.6134 288.104 91.5764 287.962C91.5525 287.876 91.5462 287.786 91.5576 287.697C91.5691 287.608 91.5982 287.522 91.6432 287.445C91.6882 287.367 91.7482 287.299 91.8198 287.245C91.8913 287.191 91.9729 287.152 92.0598 287.13L94.5603 286.514C94.7294 286.474 94.9075 286.502 95.0558 286.592C95.2041 286.683 95.3106 286.828 95.3521 286.997C95.3798 287.082 95.3893 287.173 95.38 287.263C95.3707 287.352 95.3428 287.439 95.2982 287.517C95.2535 287.596 95.1929 287.664 95.1204 287.718C95.0479 287.771 94.965 287.809 94.877 287.829L92.3765 288.445C92.3244 288.456 92.2711 288.459 92.2182 288.454Z" fill="#F2F7F9"/>
<path d="M97.2775 292.108C97.1203 292.104 96.97 292.043 96.8539 291.937C96.7377 291.831 96.6633 291.687 96.6442 291.531C96.6251 291.375 96.6624 291.218 96.7495 291.087C96.8367 290.956 96.9678 290.861 97.1191 290.818L99.6196 290.202C99.7887 290.162 99.9668 290.19 100.115 290.28C100.263 290.371 100.37 290.516 100.411 290.685C100.439 290.771 100.449 290.861 100.439 290.951C100.43 291.041 100.402 291.127 100.358 291.206C100.313 291.284 100.252 291.352 100.18 291.406C100.107 291.459 100.024 291.497 99.9364 291.517L97.4359 292.133C97.3821 292.133 97.3287 292.125 97.2775 292.108Z" fill="#F2F7F9"/>
<path d="M99.7613 293.491C99.6152 293.489 99.4737 293.44 99.359 293.349C99.2443 293.259 99.163 293.133 99.1279 292.991C99.1067 292.908 99.1022 292.821 99.1146 292.737C99.1271 292.652 99.1562 292.57 99.2004 292.497C99.2446 292.423 99.3029 292.359 99.372 292.308C99.4411 292.257 99.5196 292.221 99.603 292.2L102.103 291.584C102.189 291.558 102.28 291.549 102.369 291.559C102.458 291.569 102.545 291.597 102.623 291.641C102.701 291.686 102.769 291.746 102.823 291.817C102.877 291.889 102.916 291.971 102.937 292.059C102.961 292.145 102.967 292.235 102.956 292.324C102.944 292.413 102.915 292.499 102.87 292.576C102.825 292.654 102.765 292.721 102.694 292.776C102.622 292.83 102.54 292.869 102.454 292.891L99.953 293.507L99.7613 293.491Z" fill="#F2F7F9"/>
<path d="M102.47 294.773C102.324 294.771 102.183 294.722 102.068 294.631C101.953 294.541 101.872 294.415 101.837 294.273C101.809 294.187 101.8 294.097 101.809 294.007C101.818 293.917 101.846 293.831 101.891 293.752C101.935 293.674 101.996 293.606 102.068 293.552C102.141 293.498 102.224 293.46 102.312 293.441L104.812 292.824C104.898 292.799 104.988 292.792 105.077 292.802C105.166 292.813 105.252 292.841 105.33 292.885C105.408 292.929 105.476 292.989 105.53 293.06C105.584 293.131 105.624 293.212 105.646 293.299C105.67 293.385 105.676 293.476 105.665 293.565C105.653 293.653 105.624 293.739 105.579 293.817C105.534 293.894 105.474 293.962 105.402 294.016C105.331 294.07 105.249 294.109 105.162 294.132L102.662 294.748L102.47 294.773Z" fill="#F2F7F9"/>
<path d="M105.387 295.863C105.241 295.864 105.098 295.817 104.982 295.728C104.866 295.639 104.783 295.514 104.746 295.372C104.722 295.286 104.715 295.195 104.727 295.107C104.738 295.018 104.767 294.932 104.812 294.854C104.857 294.777 104.917 294.709 104.989 294.655C105.061 294.601 105.142 294.562 105.229 294.54L107.73 293.923C107.899 293.883 108.077 293.911 108.225 294.002C108.373 294.092 108.48 294.238 108.521 294.406C108.543 294.489 108.547 294.576 108.535 294.661C108.522 294.746 108.493 294.827 108.449 294.901C108.405 294.974 108.346 295.038 108.277 295.089C108.208 295.14 108.13 295.177 108.046 295.197L105.546 295.813C105.496 295.838 105.442 295.855 105.387 295.863Z" fill="#F2F7F9"/>
<path d="M89.9594 279.354C84.3666 280.661 76.6901 280.578 76.6901 280.578C76.6901 280.578 68.4802 246.019 66.1214 229.942C64.221 216.971 58.9449 163.413 58.9449 163.413L87.3672 153.239L87.6673 210.46L87.9506 218.886L89.9594 279.354Z" fill="#121633"/>
<path d="M87.9506 218.886C87.5839 218.936 87.2088 218.969 86.8337 218.994C81.3077 219.385 76.6901 217.812 76.5234 215.472C76.3567 213.133 80.6909 210.91 86.2336 210.519C86.7171 210.519 87.2005 210.469 87.6672 210.46L87.9506 218.886Z" fill="#353C6D"/>
<path d="M77.882 275.882C77.6858 275.886 77.4947 275.82 77.3422 275.697C77.1898 275.573 77.0857 275.4 77.0485 275.208C77.0485 275.025 73.4895 257.25 71.039 245.719C68.5885 234.188 66.1047 214.407 66.0797 214.207L61.5454 167.093C61.5345 166.983 61.5452 166.873 61.577 166.768C61.6088 166.663 61.661 166.565 61.7306 166.48C61.8003 166.395 61.886 166.324 61.983 166.272C62.0799 166.22 62.1861 166.188 62.2956 166.177C62.405 166.166 62.5156 166.177 62.6209 166.209C62.7262 166.24 62.8243 166.292 62.9094 166.362C62.9945 166.432 63.0651 166.517 63.1171 166.614C63.1691 166.711 63.2015 166.817 63.2124 166.926L67.755 214.024C67.755 214.198 70.2555 233.872 72.681 245.369C75.1065 256.867 78.6572 274.7 78.6988 274.875C78.7218 274.984 78.7227 275.096 78.7014 275.205C78.6801 275.315 78.6371 275.418 78.5749 275.511C78.5128 275.603 78.4327 275.682 78.3394 275.743C78.2462 275.804 78.1417 275.846 78.032 275.865C77.983 275.878 77.9325 275.883 77.882 275.882Z" fill="#353C6D"/>
<path d="M75.9566 276.09C75.8019 276.09 75.6535 276.029 75.5441 275.92C75.4347 275.81 75.3732 275.662 75.3732 275.507C75.3732 275.353 75.4347 275.205 75.5441 275.095C75.6535 274.986 75.8019 274.925 75.9566 274.925L89.4426 274.159C89.5182 274.155 89.5936 274.167 89.6647 274.193C89.7358 274.219 89.801 274.258 89.8568 274.309C89.9125 274.36 89.9576 274.422 89.9895 274.49C90.0214 274.559 90.0395 274.633 90.0427 274.708C90.0499 274.86 89.9985 275.008 89.8992 275.123C89.7999 275.237 89.6603 275.309 89.5093 275.324L76.0233 276.09H75.9566Z" fill="#353C6D"/>
<path d="M55.7443 137.92V138.436C55.5526 143.024 55.3109 149.526 55.1775 156.153C55.1775 156.519 55.1775 156.886 55.1775 157.252C55.1775 159.367 55.1192 161.49 55.1108 163.554C55.1108 163.694 55.1659 163.829 55.2641 163.928C55.3624 164.028 55.4959 164.085 55.6359 164.087C55.7774 164.087 55.9131 164.031 56.0131 163.931C56.1132 163.831 56.1694 163.696 56.1694 163.554C56.1694 161.565 56.1694 159.517 56.2277 157.477V156.403C56.3527 149.742 56.5945 143.174 56.7862 138.545C56.7862 138.328 56.7862 138.12 56.7862 137.92H55.7443Z" fill="#353C6D"/>
<path d="M60.1035 137.92C60.1035 138.203 60.1035 138.495 60.1035 138.753C59.8201 144.755 59.3783 153.256 59.095 155.262C59.0807 155.459 59.0185 155.649 58.9139 155.815C58.8093 155.982 58.6654 156.121 58.4948 156.22C57.7728 156.523 56.9723 156.588 56.2111 156.403C55.8513 156.338 55.4952 156.255 55.1442 156.153C54.6393 156.012 54.1438 155.84 53.6606 155.637C53.5972 155.608 53.5286 155.592 53.4589 155.589C53.3892 155.587 53.3197 155.599 53.2545 155.623C53.1894 155.648 53.1298 155.686 53.0793 155.734C53.0288 155.782 52.9884 155.839 52.9604 155.903C52.9045 156.033 52.902 156.179 52.9535 156.31C53.0051 156.441 53.1064 156.546 53.2355 156.603C53.8488 156.867 54.4813 157.084 55.1275 157.252C55.476 157.346 55.8294 157.421 56.1861 157.477C56.5228 157.528 56.8624 157.559 57.2029 157.568C57.8149 157.592 58.4228 157.46 58.9699 157.185C59.2844 157.009 59.5516 156.76 59.7489 156.458C59.9463 156.157 60.0679 155.812 60.1035 155.454C60.4036 153.381 60.837 144.872 61.1204 138.853C61.1204 138.528 61.1204 138.22 61.1704 137.92H60.1035Z" fill="#353C6D"/>
<path d="M41.5165 52.2425C41.5165 52.2425 33.3399 49.4035 28.0889 52.9585C22.8378 56.5135 20.6541 66.3459 20.6541 66.3459H36.7572L41.5165 52.2425Z" fill="#353C6D"/>
<path d="M27.4221 81.7231C27.4221 81.7231 14.3112 71.4495 10.6604 83.3882C6.73467 96.2844 13.7194 104.202 13.7194 104.202L22.6628 95.7849L27.4221 81.7231Z" fill="#353C6D"/>
<path d="M55.911 50.669C55.911 50.669 36.7406 39.9541 20.9041 64.8223C5.06768 89.6906 13.7444 120.037 27.1887 127.913C40.633 135.789 56.3611 126.498 56.3611 126.498L55.911 50.669Z" fill="#121633"/>
<path d="M98.5694 90.5315L96.4107 90.8479L80.3325 93.1873L78.3071 93.487L74.6314 70.4421C73.9062 65.863 74.6314 62.383 78.0987 59.2859C80.3158 57.3044 83.5581 55.2564 86.6921 57.9871C87.8278 59.1216 88.7558 60.4459 89.4343 61.9001C90.3771 63.7371 91.212 65.6274 91.9348 67.5614C95.6022 77.3106 98.5694 90.5315 98.5694 90.5315Z" fill="#545AE4"/>
<path d="M88.7175 81.7647C88.6591 83.2883 88.5758 84.8119 88.4674 86.3271C88.4674 86.6851 88.3924 87.0764 88.3341 87.5093C88.2007 88.4002 88.0173 89.4325 87.834 90.6147C87.5281 92.5144 87.372 94.4352 87.3672 96.3593C87.3672 96.5675 87.3672 96.7756 87.3672 96.9837C87.3672 97.4583 87.3672 98.7071 87.3672 99.4814V99.881C87.3672 101.654 87.4422 103.444 87.4756 105.226C87.7173 121.044 87.3672 136.03 87.3672 136.03C82.9497 138.445 70.9139 147.769 33.7483 136.613C28.0472 134.948 30.7477 128.129 30.7477 114.401C30.7477 113.826 30.7477 113.243 30.7477 112.677C30.7477 110.13 30.806 107.624 30.8561 105.234C30.8977 103.22 30.9477 101.288 30.9894 99.4897C30.9894 98.3991 31.0394 97.3584 31.0561 96.3843C31.0561 96.0846 31.0561 95.7849 31.0561 95.5018C31.0561 94.944 31.0561 94.4028 31.0561 93.8867C31.0561 92.6628 31.0561 91.5722 31.0561 90.6397C31.0561 90.4316 31.0561 90.2234 31.0561 90.032C31.0144 89.1994 30.9728 88.3669 30.9144 87.5343C30.7894 85.6444 30.631 83.7212 30.481 81.7897C29.8142 72.8231 29.5308 63.7733 35.282 58.6282C39.5095 54.7603 44.2019 51.4324 49.2514 48.7208L68.8802 49.3536C68.8802 49.3536 86.2337 54.507 87.4506 59.4524C88.5258 63.6734 89.0759 72.6317 88.7175 81.7647Z" fill="#545AE4"/>
<path d="M88.7175 81.7647C88.6591 83.2883 88.5758 84.8119 88.4674 86.3271C88.4674 86.6851 88.3924 87.0764 88.3341 87.5093H30.9394C30.8144 85.6194 30.656 83.6963 30.506 81.7647H88.7175Z" fill="#3228BD"/>
<path d="M87.884 90.6314C87.5781 92.5311 87.422 94.4519 87.4172 96.376H31.0811C31.0811 96.0763 31.0811 95.7765 31.0811 95.4935C31.0811 94.9357 31.0811 94.3945 31.0811 93.8783C31.0811 92.6545 31.0811 91.5638 31.0811 90.6314H87.884Z" fill="#3228BD"/>
<path d="M87.5006 105.209H30.8811C30.9227 103.195 30.9728 101.263 31.0144 99.4648H87.3922V99.8644C87.4339 101.638 87.4672 103.428 87.5006 105.209Z" fill="#3228BD"/>
<path d="M51.4268 62.6327C56.1819 62.9799 60.9364 61.9509 65.1212 59.6689C67.7642 58.2786 70.1425 56.4357 72.1475 54.224C72.1989 54.1654 72.2379 54.0971 72.2624 54.0232C72.2869 53.9493 72.2964 53.8713 72.2901 53.7936C72.2839 53.716 72.2622 53.6405 72.2262 53.5714C72.1903 53.5023 72.1409 53.4411 72.0809 53.3914C71.9614 53.29 71.8066 53.24 71.6503 53.2525C71.494 53.265 71.3491 53.3389 71.2474 53.458C71.1557 53.5746 61.4704 64.8473 46.4258 60.543C46.3531 60.5202 46.2764 60.5122 46.2005 60.5197C46.1246 60.5271 46.051 60.5498 45.984 60.5863C45.9171 60.6229 45.8583 60.6725 45.811 60.7323C45.7637 60.7921 45.729 60.8608 45.709 60.9343C45.6862 61.0081 45.6785 61.0857 45.6864 61.1626C45.6943 61.2394 45.7176 61.3138 45.7549 61.3814C45.7923 61.449 45.8429 61.5084 45.9037 61.5561C45.9646 61.6037 46.0344 61.6386 46.1091 61.6586C47.8431 62.1663 49.6253 62.4927 51.4268 62.6327Z" fill="#3228BD"/>
<path d="M71.7891 50.261C71.7891 50.261 76.0983 62.1082 71.064 74.2635C66.0297 86.4187 48.818 96.4925 37.4824 95.1938C34.9402 97.2233 33.2464 100.126 32.7314 103.336C32.7314 103.336 60.7703 104.46 73.3311 84.8868C87.6089 62.6411 78.5988 52.9002 78.5988 52.9002C77.2402 51.3434 73.6312 49.5117 71.7891 50.261Z" fill="#121633"/>
<path d="M73.4061 70.9C75.4797 71.2125 77.4858 71.871 79.3406 72.8481C79.7733 73.0936 80.0935 73.4975 80.2335 73.9745C80.3735 74.4514 80.3223 74.9641 80.0908 75.4041C78.4167 78.6822 76.5202 81.8421 74.4147 84.8618C74.1345 85.2277 73.7317 85.4805 73.2801 85.5738C72.8285 85.6671 72.3583 85.5946 71.9559 85.3697L67.3299 82.7638C67.0961 82.6315 66.8926 82.4517 66.7325 82.2361C66.5724 82.0205 66.4593 81.7738 66.4004 81.5118C66.3415 81.2499 66.3382 80.9786 66.3906 80.7153C66.443 80.452 66.5501 80.2026 66.7048 79.9831C68.5322 77.5255 70.0809 74.8728 71.3224 72.0739C71.485 71.6712 71.7798 71.3357 72.1585 71.1224C72.5371 70.9091 72.977 70.8307 73.4061 70.9Z" fill="#353C6D"/>
<path d="M88.3591 92.1633C88.4123 92.1655 88.4655 92.1571 88.5154 92.1385C88.5653 92.12 88.611 92.0916 88.6499 92.0552C88.6887 92.0187 88.7198 91.9749 88.7414 91.9263C88.7631 91.8776 88.7748 91.8252 88.7758 91.772C88.7758 91.6304 89.2009 77.4355 88.184 68.9351C88.1675 68.8306 88.1118 68.7363 88.0282 68.6714C87.9446 68.6064 87.8394 68.5757 87.734 68.5855C87.6269 68.598 87.5292 68.6523 87.4621 68.7365C87.3949 68.8207 87.3638 68.928 87.3756 69.035C88.3924 77.4688 87.9757 91.6055 87.9673 91.747C87.9672 91.8532 88.0076 91.9555 88.0804 92.0329C88.1533 92.1102 88.2529 92.1569 88.3591 92.1633Z" fill="#3228BD"/>
<path d="M88.3007 74.4383C88.3862 74.4437 88.4713 74.4226 88.5444 74.3779C88.6175 74.3332 88.675 74.2671 88.7091 74.1885L89.9511 71.183C89.9778 71.0869 89.9684 70.9842 89.9245 70.8946C89.8806 70.8049 89.8053 70.7344 89.7128 70.6964C89.6204 70.6585 89.5173 70.6557 89.4229 70.6886C89.3286 70.7215 89.2496 70.7878 89.2009 70.875L87.959 73.8805C87.9199 73.9789 87.9207 74.0887 87.9611 74.1865C88.0015 74.2844 88.0785 74.3628 88.1757 74.405L88.3007 74.4383Z" fill="#3228BD"/>
<path d="M47.0926 131.992C54.6858 133.041 62.8374 130.677 71.0056 124.999C75.8444 121.588 80.1962 117.535 83.9415 112.952C84.0321 112.835 84.0725 112.687 84.0538 112.54C84.035 112.393 83.9587 112.26 83.8415 112.169C83.7243 112.079 83.576 112.039 83.429 112.057C83.2821 112.076 83.1486 112.152 83.058 112.269C79.386 116.764 75.1214 120.741 70.3805 124.092C63.3958 128.954 52.7354 133.807 41.5915 129.387C41.4544 129.332 41.3012 129.333 41.1653 129.391C41.0294 129.449 40.9219 129.558 40.8664 129.695C40.8142 129.833 40.8181 129.986 40.8773 130.121C40.9364 130.256 41.0462 130.363 41.1831 130.419C43.0811 131.183 45.0657 131.711 47.0926 131.992Z" fill="#3228BD"/>
<path d="M54.9358 124.932H55.0609C64.5044 124.1 73.3394 113.435 73.7062 112.977C73.7997 112.863 73.8442 112.717 73.8302 112.57C73.8161 112.424 73.7446 112.289 73.6312 112.194C73.5147 112.102 73.3664 112.058 73.2182 112.074C73.07 112.089 72.9339 112.163 72.8394 112.278C72.756 112.386 63.9376 123.101 54.9692 123.817C54.8339 123.833 54.7093 123.899 54.619 124.001C54.5287 124.103 54.4788 124.234 54.4788 124.37C54.4788 124.507 54.5287 124.638 54.619 124.74C54.7093 124.842 54.8339 124.908 54.9692 124.924L54.9358 124.932Z" fill="#3228BD"/>
<path d="M50.4182 39.7459C50.4182 39.7459 49.5848 42.7015 46.6758 42.0854C43.7669 41.4693 46.2091 39.0133 46.2091 39.0133C46.2091 39.0133 40.2579 40.5785 43.2085 34.6757C43.2085 34.6757 40.433 35.7747 40.533 32.969C40.633 30.1633 42.9668 27.7905 41.7916 23.3281C40.6163 18.8656 39.9829 11.1395 45.6423 7.50961C51.3018 3.87969 58.3865 6.67706 66.5798 1.68176C77.5486 -5.03692 76.7651 10.9064 72.2642 12.0803C67.7633 13.2542 50.4182 39.7459 50.4182 39.7459Z" fill="#121633"/>
<path d="M67.4633 45.1492L67.755 50.1029C67.2627 50.5817 66.7362 51.0241 66.1797 51.4266C58.4198 57.0713 49.343 51.1935 49.343 51.1935L48.3262 34.018L65.1795 43.8171L67.4633 45.1492Z" fill="#FF9D7D"/>
<path d="M67.4633 45.1492L67.755 50.1029C67.2628 50.5817 66.7362 51.0241 66.1797 51.4266C59.145 48.929 53.6772 41.5526 53.6772 41.5526L65.1712 43.8254L67.4633 45.1492Z" fill="#121633"/>
<path d="M71.7891 26.4085C71.7891 26.4085 74.2396 23.1366 75.9149 26.167C77.5903 29.1975 76.8151 35.5582 72.7393 34.7673L71.7891 26.4085Z" fill="#E0693E"/>
<path d="M75.0564 35.0337C75.0564 35.0337 75.3815 44.7163 65.3795 45.2824C59.2517 45.6273 53.1967 43.8155 48.2678 40.1622L48.0428 38.1474L46.8592 27.7156L46.2258 22.1458C46.2258 22.1458 44.3587 12.1552 53.8356 9.74083C60.7536 7.98415 67.3883 8.75843 70.9223 12.2385C71.0306 12.3467 71.1473 12.4633 71.2474 12.5798C72.4122 13.8552 73.1671 15.4503 73.4145 17.1589L74.3146 27.1911L74.5397 29.6471L75.0564 35.0337Z" fill="#FF9D7D"/>
<path d="M60.6119 31.7951C60.6119 31.7951 61.7288 36.0244 65.1212 36.8487C68.9803 37.7811 70.0555 32.9523 70.0555 32.9523L60.6119 31.7951Z" fill="#F2F7F9"/>
<path d="M66.4714 38.3972L66.7048 38.3306C66.7844 38.3019 66.8493 38.2428 66.8852 38.1663C66.9212 38.0898 66.9252 38.0022 66.8965 37.9227C66.8678 37.8432 66.8086 37.7783 66.732 37.7424C66.6554 37.7065 66.5676 37.7025 66.4881 37.7312C66.1584 37.837 65.8072 37.8574 65.4675 37.7905C65.1278 37.7235 64.8107 37.5713 64.546 37.3482C64.5154 37.3198 64.4794 37.2977 64.4402 37.2831C64.401 37.2686 64.3593 37.2619 64.3175 37.2634C64.2757 37.265 64.2347 37.2747 64.1966 37.2921C64.1586 37.3095 64.1244 37.3342 64.0959 37.3648C64.0675 37.3955 64.0453 37.4314 64.0308 37.4705C64.0162 37.5097 64.0095 37.5513 64.0111 37.5931C64.0126 37.6348 64.0224 37.6759 64.0398 37.7138C64.0572 37.7518 64.082 37.786 64.1126 37.8144C64.4311 38.0918 64.8113 38.2894 65.2215 38.3907C65.6317 38.4921 66.0602 38.4943 66.4714 38.3972Z" fill="#E0693E"/>
<path d="M61.0453 25.2263C61.1037 26.192 60.7119 26.9913 60.2118 27.0246C59.7117 27.0579 59.1867 26.3002 59.1367 25.3595C59.0866 24.4187 59.4701 23.6028 59.9702 23.5695C60.4702 23.5362 60.987 24.2688 61.0453 25.2263Z" fill="#121633"/>
<path d="M70.5472 24.6685C70.6056 25.6259 70.2138 26.4335 69.7137 26.4668C69.2136 26.5001 68.6885 25.7424 68.6385 24.8017C68.5885 23.8609 68.9719 23.0367 69.472 23.0034C69.9721 22.9701 70.4889 23.711 70.5472 24.6685Z" fill="#121633"/>
<path d="M65.9546 29.8553C66.5918 29.8589 67.2172 29.6837 67.7595 29.3495C68.3018 29.0154 68.7392 28.5358 69.0219 27.9654C69.0466 27.9118 69.0594 27.8536 69.0594 27.7947C69.0594 27.7358 69.0466 27.6775 69.0219 27.624C67.2216 24.4187 65.3962 21.1135 65.3712 21.0802C65.3469 21.0345 65.3135 20.9942 65.2732 20.9618C65.2329 20.9294 65.1864 20.9054 65.1365 20.8914C65.0867 20.8774 65.0345 20.8736 64.9832 20.8803C64.9318 20.887 64.8824 20.904 64.8378 20.9303C64.7922 20.9547 64.7519 20.988 64.7192 21.028C64.6865 21.0681 64.6621 21.1142 64.6474 21.1638C64.6327 21.2133 64.6279 21.2653 64.6334 21.3167C64.6389 21.368 64.6545 21.4178 64.6794 21.4631C64.6794 21.4631 66.4631 24.6768 68.2301 27.8322C67.9812 28.2122 67.6411 28.524 67.2408 28.7392C66.8405 28.9544 66.3926 29.0662 65.938 29.0643C65.8858 29.0664 65.8345 29.079 65.7872 29.1012C65.74 29.1233 65.6976 29.1548 65.6626 29.1935C65.6277 29.2323 65.6009 29.2777 65.5837 29.327C65.5666 29.3763 65.5595 29.4285 65.5629 29.4806C65.5672 29.5815 65.6104 29.6768 65.6834 29.7466C65.7564 29.8164 65.8536 29.8553 65.9546 29.8553Z" fill="#121633"/>
<path d="M57.3196 13.5456C56.7904 13.5912 56.2929 13.8171 55.9106 14.1854C55.5282 14.5537 55.2841 15.0421 55.2192 15.5687C55.1309 16.1102 54.9256 16.6261 54.6176 17.0804C54.3095 17.5347 53.9062 17.9166 53.4355 18.1996C50.4766 20.3309 51.1851 22.9784 52.0186 25.1597C52.8521 27.341 48.6429 31.7118 45.5923 26.3419C42.5417 20.9719 44.3671 9.19136 52.527 8.15067C60.6869 7.10999 71.6975 9.13308 72.806 12.7796C73.4835 14.9994 73.7379 17.3264 73.5562 19.6399C73.0879 19.2113 72.718 18.6865 72.472 18.1016C72.2259 17.5166 72.1096 16.8855 72.1309 16.2514C72.1309 13.9202 70.4639 13.096 67.705 12.9212C64.2345 12.9414 60.7675 13.1498 57.3196 13.5456Z" fill="#121633"/>
<g opacity="0.8">
<path d="M74.548 29.6138C74.2912 29.6548 74.0325 29.6826 73.7728 29.6971C71.9975 29.8053 70.5222 29.3224 70.4889 28.6231C70.4555 27.9237 71.8475 27.2743 73.6228 27.1661C73.8645 27.1661 74.0979 27.1661 74.323 27.1661L74.548 29.6138Z" fill="#E0693E"/>
</g>
<path d="M61.3871 29.1642C61.4288 29.8636 60.0202 30.513 58.2448 30.6129C56.4695 30.7128 54.9942 30.2382 54.9525 29.5389C54.9108 28.8395 56.3195 28.1901 58.0948 28.0902C59.8702 27.9903 61.3454 28.4649 61.3871 29.1642Z" fill="#E0693E"/>
<path d="M55.4943 20.6972C55.7698 21.2214 56.2405 21.6164 56.8049 21.7971C57.3694 21.9778 57.9823 21.9296 58.5115 21.663C59.225 21.3218 59.9668 21.0432 60.7286 20.8304C61.0014 20.7557 61.256 20.6261 61.4768 20.4495C61.6976 20.273 61.8799 20.0532 62.0126 19.8037C62.1453 19.5542 62.2256 19.2803 62.2484 18.9987C62.2713 18.7171 62.2363 18.4338 62.1456 18.1662C62.1456 18.1662 57.4697 17.9748 55.4943 20.6972Z" fill="#121633"/>
<path d="M73.5561 19.6315C73.3464 20.1865 72.9257 20.6362 72.3855 20.8826C71.8453 21.129 71.2294 21.1521 70.6722 20.947C69.9256 20.6746 69.1556 20.4711 68.3718 20.3392C68.0903 20.2967 67.8206 20.1971 67.5791 20.0464C67.3377 19.8958 67.1297 19.6973 66.9681 19.4633C66.8064 19.2292 66.6945 18.9646 66.6392 18.6857C66.5838 18.4068 66.5863 18.1195 66.6464 17.8416C66.6464 17.8416 71.2724 17.1589 73.5561 19.6315Z" fill="#121633"/>
<path d="M51.2101 36.0827C51.1684 36.1909 50.0765 39.1965 48.3095 40.1622L48.0845 38.1474C49.2976 37.7615 50.3797 37.0467 51.2101 36.0827Z" fill="#121633"/>
<path d="M49.0513 29.5222C49.0513 29.5222 44.8838 24.6019 42.3333 28.8146C40.2079 32.2863 45.1089 40.72 49.5181 37.4731L49.0513 29.5222Z" fill="#FF9D7D"/>
<path d="M48.9013 35.9495C48.9531 35.9415 49.0027 35.9231 49.0473 35.8956C49.0918 35.8681 49.1304 35.8319 49.1607 35.7892C49.191 35.7465 49.2124 35.6982 49.2237 35.647C49.235 35.5959 49.2359 35.5431 49.2263 35.4916C49.0161 34.2149 48.4734 33.0159 47.6527 32.0149C46.832 31.0139 45.7621 30.2461 44.5504 29.7886C44.4509 29.7555 44.3424 29.7632 44.2486 29.8101C44.1548 29.8569 44.0835 29.939 44.0503 30.0384C44.0172 30.1378 44.0249 30.2462 44.0718 30.3399C44.1187 30.4336 44.2009 30.5048 44.3004 30.5379C45.3797 30.9477 46.3326 31.6331 47.0639 32.5257C47.7952 33.4183 48.2793 34.4869 48.4678 35.6248C48.4823 35.7252 48.536 35.8158 48.6173 35.8767C48.6986 35.9376 48.8007 35.9638 48.9013 35.9495Z" fill="#121633"/>
<path d="M45.0756 33.7766C45.1644 33.7684 45.2486 33.7336 45.3173 33.6767C45.6423 33.3769 46.6425 32.6276 47.3343 32.7608C47.3853 32.7718 47.4379 32.7724 47.4891 32.7628C47.5403 32.7532 47.589 32.7334 47.6325 32.7047C47.6759 32.676 47.7132 32.639 47.7422 32.5957C47.7711 32.5525 47.7912 32.5039 47.8011 32.4528C47.8207 32.3491 47.7983 32.2418 47.739 32.1544C47.6796 32.0671 47.5881 32.0067 47.4844 31.9866C46.2841 31.7535 44.9339 32.9523 44.7838 33.0939C44.7224 33.1484 44.6796 33.2208 44.6616 33.3009C44.6436 33.3809 44.6513 33.4647 44.6835 33.5402C44.7158 33.6156 44.771 33.6791 44.8414 33.7215C44.9117 33.764 44.9937 33.7832 45.0756 33.7766Z" fill="#121633"/>
<path d="M60.8037 19.7814C59.4288 19.6602 58.0571 20.0466 56.9482 20.8674C55.8393 21.6881 55.07 22.8864 54.7858 24.2355C54.7424 24.4528 54.7118 24.6724 54.6941 24.8932C54.6897 24.9737 54.6897 25.0543 54.6941 25.1347C54.6392 26.5783 55.1413 27.9878 56.0967 29.0723C57.0522 30.1568 58.388 30.8334 59.8285 30.9625H60.1702H60.3286C61.7912 30.979 63.2028 30.4266 64.2651 29.4222C65.3274 28.4179 65.9571 27.0402 66.0209 25.5806C66.0848 24.1209 65.5779 22.6937 64.6074 21.6006C63.6368 20.5075 62.2788 19.8342 60.8203 19.7231L60.8037 19.7814ZM65.0295 25.8091C64.9048 27.0174 64.3201 28.1317 63.3963 28.9218C62.4725 29.7118 61.2802 30.1172 60.0657 30.0541C58.8512 29.991 57.7074 29.4644 56.8705 28.5829C56.0337 27.7015 55.5679 26.5326 55.5693 25.3179C55.5693 25.2013 55.5693 25.0847 55.5693 24.9682C55.5836 24.7832 55.6114 24.5996 55.6526 24.4187C55.8895 23.338 56.4977 22.3742 57.3715 21.6944C58.2454 21.0147 59.3299 20.6619 60.4369 20.6972H60.7286C61.9071 20.8031 63.0033 21.3452 63.8021 22.2171C64.601 23.0889 65.0447 24.2276 65.0462 25.4094C65.0462 25.526 65.0378 25.6925 65.0295 25.8091Z" fill="#F2F7F9"/>
<path d="M73.1644 29.6388H72.8143C71.3247 29.5056 69.9489 28.7871 68.9893 27.6413C68.0297 26.4954 67.5648 25.0159 67.6966 23.5279C67.8725 22.0743 68.6077 20.746 69.7467 19.8244C70.8856 18.9027 72.339 18.4599 73.799 18.5897C75.2591 18.7196 76.6113 19.4118 77.5694 20.52C78.5274 21.6281 79.0162 23.0652 78.9322 24.5269C78.8035 25.9546 78.1358 27.28 77.0647 28.234C75.9935 29.188 74.5991 29.6991 73.1644 29.6638V29.6388ZM73.4395 19.2735C72.2343 19.2413 71.0622 19.6696 70.1623 20.471C69.2624 21.2724 68.7025 22.3865 68.5968 23.5861C68.4856 24.8343 68.874 26.0755 69.6769 27.0383C70.4798 28.001 71.6319 28.6068 72.881 28.723C74.1103 28.7914 75.3182 28.3796 76.2491 27.5747C77.1799 26.7697 77.7609 25.6347 77.8692 24.4096C77.9774 23.1845 77.6044 21.9654 76.8291 21.01C76.0538 20.0546 74.9368 19.4379 73.7145 19.2902L73.4395 19.2735Z" fill="#F2F7F9"/>
<path d="M65.3796 24.8599C65.3009 24.8579 65.2242 24.835 65.1574 24.7935C65.0906 24.7519 65.0361 24.6934 64.9996 24.6238C64.963 24.5542 64.9458 24.4761 64.9496 24.3976C64.9534 24.3191 64.9781 24.243 65.0212 24.1772C65.3776 23.6297 65.9236 23.2325 66.5548 23.0616C66.824 23.0117 67.1005 23.0177 67.3673 23.0793C67.634 23.1409 67.8852 23.2567 68.1051 23.4196C68.1978 23.4892 68.2601 23.5919 68.2789 23.7062C68.2977 23.8205 68.2716 23.9377 68.206 24.0332C68.1404 24.1288 68.0405 24.1954 67.9269 24.2191C67.8134 24.2428 67.6951 24.2219 67.5967 24.1606C67.4794 24.0704 67.3452 24.0047 67.202 23.9675C67.0588 23.9303 66.9095 23.9224 66.7632 23.9441C66.3691 24.0668 66.0283 24.3191 65.7963 24.6601C65.7528 24.7293 65.6906 24.7848 65.6168 24.8202C65.5431 24.8555 65.4608 24.8693 65.3796 24.8599Z" fill="#F2F7F9"/>
<path d="M55.6693 24.4187C55.6281 24.5996 55.6002 24.7832 55.5859 24.9682C55.5859 25.0847 55.5859 25.2013 55.5859 25.3178C55.3442 25.2596 55.0442 25.193 54.6941 25.1347C52.5937 24.7767 48.7263 24.5685 45.909 27.0495C45.8587 27.0946 45.7988 27.1277 45.7339 27.1464C45.6689 27.1651 45.6006 27.169 45.534 27.1578C45.4324 27.1397 45.3391 27.0902 45.2672 27.0162C45.1857 26.931 45.1402 26.8177 45.1402 26.6999C45.1402 26.582 45.1857 26.4687 45.2672 26.3835C48.3762 23.6444 52.4937 23.8859 54.7608 24.2355C55.1275 24.2938 55.4276 24.3521 55.6693 24.4187Z" fill="#F2F7F9"/>
<path d="M43.7086 73.4309L43.667 73.5641L42.3334 77.7269L41.0081 81.9396L39.6995 86.1606L38.4326 90.3816L37.9825 91.9052C37.7991 92.5213 37.6241 93.129 37.4574 93.7368L37.2324 94.5277C36.8212 95.9542 36.4266 97.3778 36.0488 98.7987C35.6737 100.189 35.307 101.588 34.9736 102.961C34.6402 104.335 34.3151 105.717 34.0234 107.074C33.7317 108.431 33.4816 109.763 33.2816 111.046L33.1399 111.945C33.0982 112.203 33.0649 112.461 33.0315 112.727C32.9649 113.252 32.9232 113.801 32.9065 114.392C32.8898 114.983 32.9065 115.516 32.9065 116.057C32.9065 116.599 32.9732 117.231 33.0232 117.831C33.1344 119.063 33.3125 120.289 33.5566 121.502C34.0831 124.076 34.7962 126.608 35.6904 129.079C36.1571 130.344 36.6406 131.576 37.1824 132.858C37.4407 133.483 37.7158 134.107 38.0159 134.715L38.4409 135.614L38.6493 136.047L38.7493 136.255L38.791 136.347V136.405C39.6652 137.789 39.9656 139.458 39.6285 141.059C39.2914 142.66 38.3433 144.067 36.9853 144.982C35.6272 145.897 33.9658 146.248 32.3533 145.96C30.7408 145.672 29.304 144.768 28.3473 143.44L27.8972 142.849L27.5054 142.324C27.2554 141.975 27.0054 141.633 26.7636 141.284C26.2885 140.593 25.8218 139.902 25.3717 139.202C24.4882 137.787 23.6297 136.363 22.8712 134.881C21.2529 131.876 19.8976 128.737 18.8204 125.499C17.6665 122.043 16.947 118.458 16.6783 114.825C16.6116 113.876 16.5783 112.919 16.5866 111.936C16.5866 111.453 16.5866 110.962 16.6366 110.463V110.096V109.763L16.695 109.122C16.845 107.407 17.0451 105.792 17.2784 104.127C17.5118 102.462 17.7702 100.93 18.0536 99.3732C18.337 97.8163 18.6537 96.2594 18.9704 94.7275C19.2372 93.4371 19.5205 92.155 19.8039 90.8812C19.9873 90.0486 20.1873 89.2161 20.379 88.3835C20.4624 88.0255 20.5541 87.6592 20.6374 87.3012L21.0625 85.6361C21.4292 84.1292 21.8293 82.6389 22.2211 81.1486C22.6128 79.6584 23.0546 78.1764 23.4547 76.6945C23.738 75.6788 24.0298 74.6631 24.3298 73.6557C26.2407 69.5597 28.603 65.6894 31.3729 62.1166C32.9987 61.4135 34.7936 61.196 36.5405 61.4904C38.2874 61.7848 39.9116 62.5784 41.2165 63.7753C42.5214 64.9721 43.4513 66.521 43.8935 68.2346C44.3358 69.9482 44.2716 71.753 43.7086 73.4309Z" fill="#FF9D7D"/>
<path d="M32.6314 115.516C32.6982 115.493 32.7587 115.455 32.8079 115.404C32.8572 115.354 32.8938 115.292 32.9148 115.225C32.9344 115.168 32.9423 115.107 32.9382 115.046C32.9341 114.986 32.918 114.927 32.8908 114.873C32.8637 114.818 32.8261 114.77 32.7801 114.731C32.7342 114.691 32.6808 114.661 32.6231 114.642C30.0952 113.868 27.4221 113.688 24.8132 114.118C24.754 114.13 24.6978 114.153 24.6478 114.187C24.5977 114.22 24.5548 114.264 24.5215 114.314C24.4882 114.364 24.4652 114.42 24.4537 114.48C24.4423 114.539 24.4426 114.6 24.4548 114.659C24.4808 114.779 24.5532 114.884 24.6562 114.951C24.7592 115.018 24.8845 115.041 25.0049 115.017C27.4561 114.624 29.9646 114.795 32.3397 115.516C32.4348 115.545 32.5363 115.545 32.6314 115.516Z" fill="#E0693E"/>
<path d="M32.0397 115.283C32.0891 115.268 32.1347 115.243 32.173 115.208C32.2678 115.131 32.3293 115.021 32.3448 114.9C32.3603 114.779 32.3286 114.657 32.2564 114.559C31.2585 113.454 30.0518 112.557 28.7057 111.92C28.5949 111.871 28.4695 111.867 28.356 111.909C28.2424 111.951 28.1497 112.036 28.0972 112.144C28.0708 112.199 28.0557 112.258 28.0528 112.319C28.0499 112.379 28.0593 112.439 28.0803 112.496C28.1013 112.553 28.1335 112.605 28.1751 112.649C28.2167 112.693 28.2668 112.728 28.3223 112.752C29.5331 113.336 30.622 114.144 31.5312 115.133C31.5908 115.207 31.6713 115.261 31.7621 115.287C31.8529 115.314 31.9497 115.313 32.0397 115.283Z" fill="#E0693E"/>
<path d="M19.8706 90.9061L37.2657 94.5194C37.5102 93.648 37.7602 92.7738 38.0158 91.8969L20.7041 87.3511C20.4207 88.5334 20.1373 89.7156 19.8706 90.9061Z" fill="#E0693E"/>
<path d="M45.2172 71.6992L37.9908 93.8867L37.4907 93.7285L20.4457 88.4335L18.437 87.809C20.1723 82.9896 22.1616 78.2653 24.3965 73.6557C26.3074 69.5597 28.6697 65.6894 31.4395 62.1166C32.5265 60.734 33.833 59.5388 35.307 58.5782C36.6522 57.8544 38.1994 57.5959 39.7073 57.8429C41.2151 58.0899 42.5986 58.8285 43.6419 59.9436C46.6925 63.4653 46.6592 67.32 45.2172 71.6992Z" fill="#545AE4"/>
<path d="M37.8741 92.796C37.965 92.8008 38.0549 92.7757 38.1302 92.7245C38.2054 92.6734 38.2619 92.5991 38.2909 92.513L43.6169 75.6455C43.635 75.5953 43.6426 75.5419 43.6392 75.4887C43.6359 75.4354 43.6217 75.3834 43.5975 75.3358C43.5733 75.2883 43.5396 75.2462 43.4985 75.2121C43.4574 75.178 43.4098 75.1527 43.3585 75.1376C43.3082 75.1208 43.255 75.1141 43.2021 75.118C43.1491 75.1219 43.0975 75.1363 43.0502 75.1603C43.0029 75.1843 42.9608 75.2175 42.9265 75.2579C42.8921 75.2983 42.8661 75.3452 42.8501 75.3957L37.4907 92.2965C37.474 92.3462 37.4674 92.3988 37.4714 92.4511C37.4754 92.5034 37.4898 92.5543 37.5139 92.6009C37.538 92.6475 37.5713 92.6888 37.6117 92.7223C37.6521 92.7558 37.6988 92.7809 37.7491 92.796H37.8741Z" fill="#3228BD"/>
<path d="M41.8999 80.058C41.9788 80.0594 42.0566 80.0393 42.1249 79.9997L44.7505 78.4845C44.796 78.4579 44.8359 78.4225 44.8677 78.3804C44.8995 78.3383 44.9227 78.2903 44.9359 78.2392C44.9491 78.1881 44.952 78.135 44.9445 78.0828C44.937 78.0305 44.9192 77.9803 44.8922 77.935C44.8381 77.8433 44.7504 77.7763 44.6476 77.7483C44.5448 77.7203 44.4352 77.7336 44.342 77.7852L41.7249 79.3087C41.633 79.3627 41.566 79.4503 41.5379 79.553C41.5099 79.6556 41.5232 79.7652 41.5748 79.8582C41.6092 79.915 41.6566 79.9627 41.7131 79.9975C41.7696 80.0322 41.8337 80.053 41.8999 80.058Z" fill="#3228BD"/>
<path d="M31.8146 156.453C35.4208 153.961 38.8956 151.285 42.225 148.435V148.394H42.2667C43.4964 147.301 44.6625 146.139 45.759 144.914C45.5173 144.372 45.3006 143.898 45.1256 143.532C43.9895 141.478 42.4701 139.661 40.6497 138.178C39.4161 137.213 38.3409 135.456 37.1656 135.289C33.4316 134.773 28.3806 137.571 28.2472 139.535C28.0389 142.433 29.0807 148.344 29.3391 150.558C29.4225 151.449 29.9809 154.272 30.706 157.219L31.8146 156.453Z" fill="#FF9D7D"/>
<path d="M30.0642 158.226C30.0696 158.12 30.0977 158.016 30.1466 157.921C30.1954 157.826 30.264 157.743 30.3476 157.677L46.9092 144.397C47.0616 144.276 47.2543 144.216 47.449 144.23C47.6437 144.243 47.826 144.33 47.9594 144.472C48.0281 144.55 48.0806 144.64 48.1136 144.739C48.1467 144.837 48.1597 144.94 48.152 145.044C48.1442 145.147 48.1158 145.248 48.0684 145.34C48.021 145.432 47.9556 145.513 47.8761 145.58L31.3145 158.9C31.1964 158.995 31.0531 159.054 30.9022 159.068C30.7513 159.082 30.5995 159.052 30.4656 158.981C30.3317 158.911 30.2215 158.802 30.1487 158.669C30.0759 158.537 30.0436 158.385 30.0559 158.234L30.0642 158.226Z" fill="#353C6D"/>
<path d="M86.9671 156.403L80.2991 140.21C80.2012 139.998 80.0293 139.829 79.8157 139.735C79.6742 139.687 79.5216 139.68 79.3764 139.716C79.2312 139.752 79.0995 139.829 78.9973 139.938C78.895 140.047 78.8266 140.184 78.8003 140.331C78.7739 140.478 78.7908 140.63 78.8489 140.768L85.5168 156.994C85.558 157.092 85.619 157.181 85.6961 157.255C85.7732 157.328 85.8646 157.385 85.9648 157.422C86.0649 157.459 86.1716 157.475 86.2781 157.468C86.3846 157.462 86.4886 157.434 86.5837 157.385C86.7614 157.302 86.9003 157.153 86.9716 156.97C87.0429 156.788 87.0413 156.584 86.9671 156.403Z" fill="#353C6D"/>
<path d="M80.3825 140.201C80.3825 140.201 84.5 150.517 86.6421 155.47C86.6421 155.47 93.8852 148.544 93.3767 137.92C93.06 130.494 80.3825 140.201 80.3825 140.201Z" fill="#FF9D7D"/>
</g>
<defs>
<clipPath id="clip0_21_13">
<rect width="127" height="310" fill="white"/>
</clipPath>
</defs>
</svg>
